<svg viewBox="0 0 200 200" xmlns="http://www.w3.org/2000/svg">
  <!-- Globe/Earth ball -->
  <circle cx="100" cy="100" r="45" fill="#A8D8EA"/>
  
  <!-- Continents on globe -->
  <path d="M 75 85 Q 80 80, 85 85 Q 90 90, 95 85 Q 100 80, 105 85 L 105 95 Q 100 100, 95 95 Q 90 100, 85 95 L 85 88 Z" fill="#7BC96F"/>
  <path d="M 108 105 Q 115 102, 120 105 Q 125 110, 120 115 Q 115 117, 110 115 Z" fill="#7BC96F"/>
  <ellipse cx="82" cy="110" rx="12" ry="8" fill="#7BC96F"/>
  
  <!-- Happy face -->
  <circle cx="92" cy="95" r="3.5" fill="#333"/>
  <circle cx="108" cy="95" r="3.5" fill="#333"/>
  
  <!-- Big smile -->
  <path d="M 94 103 A 6 6 0 0 0 106 103" stroke="#333" stroke-width="3" fill="none" stroke-linecap="round"/>
  
  <!-- Fork on left -->
  <g transform="translate(40, 90)">
    <rect x="0" y="0" width="3" height="35" fill="#C0C0C0" rx="1"/>
    <rect x="-4" y="0" width="2" height="12" fill="#C0C0C0" rx="1"/>
    <rect x="1" y="0" width="2" height="12" fill="#C0C0C0" rx="1"/>
    <rect x="6" y="0" width="2" height="12" fill="#C0C0C0" rx="1"/>
  </g>
  
  <!-- Spoon on right -->
  <g transform="translate(157, 90)">
    <rect x="0" y="10" width="3" height="25" fill="#C0C0C0" rx="1"/>
    <ellipse cx="1.5" cy="6" rx="5" ry="7" fill="#C0C0C0"/>
  </g>
</svg>